<svg id="Layer_1" data-name="Layer 1" xmlns="http://www.w3.org/2000/svg" viewBox="0 0 115.52 115.52"><defs><style>.cls-1{fill:#3e3e3e;}
g#location {
    transform-box: fill-box;
    transform-origin: bottom;
    animation: location 1s ease 0s infinite;
}
@keyframes location{
	0%{transform: translateY(0px);}
	50%{transform: translateY(7px);}
	100%{transform: translateY(0px);}
}




</style></defs><title>1</title><g id="location"><path class="cls-1" d="M66.77,48.85a.85.85,0,0,1-.85.85H58.17a.85.85,0,0,1-.85-.84V36.28a.85.85,0,1,1,1.69,0V48h6.91A.85.85,0,0,1,66.77,48.85Z" transform="translate(0.01 0)"/><path class="cls-1" d="M58.13,95.73l-.7-.75C42.93,79.38,35.09,69,32,61.26a28.38,28.38,0,0,1-1.52-4v-.1a28.15,28.15,0,0,1-1.16-8,28.91,28.91,0,0,1,57.81,0A28.87,28.87,0,0,1,86,57.26a.34.34,0,0,1-.06.24c-.12.4-.26.8-.4,1.22C80,73.82,59.7,94.15,58.86,95Zm.06-73.5a26.93,26.93,0,0,0-26.9,26.9,26.56,26.56,0,0,0,1.09,7.52,27.52,27.52,0,0,0,1.45,3.82C36.8,67.9,44.3,77.9,58.18,92.9c3.72-3.83,20.67-21.7,25.38-34.84l.38-1.13a.61.61,0,0,1,0-.19,26.81,26.81,0,0,0-25.75-34.5Zm0,44.05A17.58,17.58,0,1,1,75.78,48.7,17.58,17.58,0,0,1,58.19,66.28Zm0-33.16A15.58,15.58,0,1,0,73.78,48.7,15.59,15.59,0,0,0,58.19,33.12Z" transform="translate(0.01 0)"/></g><path class="cls-1" d="M57.75,115.52a57.76,57.76,0,1,1,57.76-57.76h0A57.81,57.81,0,0,1,57.75,115.52ZM57.75,2a55.76,55.76,0,1,0,55.76,55.76h0A55.82,55.82,0,0,0,57.75,2Z" transform="translate(0.01 0)"/></svg>