<svg id="Layer_1" data-name="Layer 1" xmlns="http://www.w3.org/2000/svg" viewBox="0 0 115.52 115.52"><defs><style>.cls-1{fill:#3e3e3e;}path#kata {transform: rotate(37deg);transform-origin: 4.2px 26px;transform-box: fill-box;animation: kata 2s cubic-bezier(0.16, 1.37, 0.3, 0.43) 0s infinite;}@keyframes kata{0%{transform: rotate(37deg);}50%{transform: rotate(97deg);}100%{transform: rotate(37deg);}}</style></defs><title>2</title><g id="gol"><path class="cls-1" d="M57.75,115.52a57.76,57.76,0,1,1,57.76-57.76h0A57.81,57.81,0,0,1,57.75,115.52ZM57.75,2a55.76,55.76,0,1,0,55.76,55.76h0A55.82,55.82,0,0,0,57.75,2Z" transform="translate(0.01 0)"/><path class="cls-1" d="M83.63,67.37,78.13,65l.33-.82,5.6,2.17-.42,1ZM79.46,51.3l-.4-1.58L84.81,48l.52,2Zm-43.62,0L30,50c.15-.67.32-1.33.5-2l5.76,1.7a11.61,11.61,0,0,0-.4,1.54ZM72,39l-1.3-1,3.5-4.88,1.64,1.27ZM43.34,39l-3.83-4.62,1.64-1.27L44.63,38a15.62,15.62,0,0,0-1.29,1Zm15.14-5.1H56.84l-.2-6h2.07ZM31.7,67.37l-.43-1,5.6-2.15.33.8ZM88.4,77.9H26.92l-.3-.44c-3.48-5.1-5.56-12.4-5.56-19.54a36.6,36.6,0,0,1,73.19-1.21c0,.4,0,.81,0,1.21,0,7.14-2.08,14.44-5.56,19.54ZM28,75.9H87.34a34.19,34.19,0,0,0,4.93-18,34.6,34.6,0,0,0-69.19-1.18c0,.4,0,.79,0,1.18A34.18,34.18,0,0,0,28,75.9Zm51,19H34.4a2.75,2.75,0,0,1-2.7-2.75V85.8a2.75,2.75,0,0,1,2.75-2.75H79a2.75,2.75,0,0,1,2.75,2.75v6.34A2.75,2.75,0,0,1,79,94.9ZM34.4,84.55a1.25,1.25,0,0,0-1.25,1.25v6.34a1.25,1.25,0,0,0,1.25,1.25H79a1.25,1.25,0,0,0,1.25-1.25V85.8A1.25,1.25,0,0,0,79,84.55Z" transform="translate(0.01 0)"/><path class="cls-1" d="M43.7,83.9h2v10h-2Zm12,0h2v10h-2Zm12,0h2v10h-2Z" transform="translate(0.01 0)"/></g><path id="kata" class="cls-1" d="M59.07,60.4V38.9A1.11,1.11,0,0,0,58,37.79h-.53a1.11,1.11,0,0,0-1.11,1.11V60.4a4,4,0,1,0,2.74,0Z" transform="translate(0.01 0)"/></svg>