<svg id="Layer_1" data-name="Layer 1" xmlns="http://www.w3.org/2000/svg" viewBox="0 0 115.52 115.52"><defs><style>.cls-1{fill:#3e3e3e;}path#kata{transform: rotate(46deg);transform-box: fill-box;transform-origin: 2.5px 17.5px;animation: kata 2s cubic-bezier(0.16, 1.37, 0.3, 0.43) 0s infinite;}@keyframes kata{0%{transform: rotate(46deg);}50%{transform: rotate(90deg);}100%{transform: rotate(46deg);}}</style></defs><title>6</title><path class="cls-1" d="M30.34,50.3A1,1,0,0,0,30,49a1,1,0,0,0-1.39.3,17,17,0,0,0,0,17.13,1,1,0,0,0,1.43.25h0a1,1,0,0,0,.31-1.38A14.94,14.94,0,0,1,30.34,50.3Z" transform="translate(0.01 0.01)"/><path class="cls-1" d="M26.17,46.48a1,1,0,0,0-.32-1.22,1,1,0,0,0-1.39.22c-7.47,12.61-.3,24.2,0,24.68a1,1,0,0,0,.84.48h0a.92.92,0,0,0,.56-.19h0a1,1,0,0,0,.3-1.37C26.08,69,19.35,58,26.17,46.48Z" transform="translate(0.01 0.01)"/><path class="cls-1" d="M90.79,45.46a1,1,0,0,0-1.37-.31,1,1,0,0,0-.32,1.38c.11.12,6.85,11,0,22.59a1,1,0,0,0-.13.51,1,1,0,0,0,1,1v0a1,1,0,0,0,.82-.48C98.27,57.53,91.1,46,90.79,45.46Z" transform="translate(0.01 0.01)"/><path class="cls-1" d="M94.84,41a1,1,0,0,0-1.38-.31A1,1,0,0,0,93.15,42c.12.17,9.55,15.43,0,31.58h0A1,1,0,0,0,93.51,75a.89.89,0,0,0,.5.15,1,1,0,0,0,.83-.49C105,57.46,94.93,41.15,94.84,41Z" transform="translate(0.01 0.01)"/><path class="cls-1" d="M57.76,0a57.77,57.77,0,1,0,57.76,57.77A57.78,57.78,0,0,0,57.76,0Zm0,113.53a55.77,55.77,0,1,1,55.76-55.76A55.77,55.77,0,0,1,57.76,113.52Z" transform="translate(0.01 0.01)"/><path class="cls-1" d="M86.7,49.24A1.05,1.05,0,0,0,85.26,49,1,1,0,0,0,85,50.39a15,15,0,0,1,0,15,1,1,0,0,0,.34,1.37,1.07,1.07,0,0,0,.52.14,1,1,0,0,0,.87-.53A17,17,0,0,0,86.7,49.24Z" transform="translate(0.01 0.01)"/><path class="cls-1" d="M22.12,42a1,1,0,0,0-1.71-1c-10.18,17.19-.11,33.5,0,33.66a1,1,0,0,0,1.4.3h0a1,1,0,0,0,.3-1.37C22,73.43,12.58,58.16,22.12,42Z" transform="translate(0.01 0.01)"/><path id="kata" class="cls-1" d="M56.89,46.32l0,14a2.65,2.65,0,1,0,2.07-.16l0-13.83a1,1,0,1,0-2.07,0Z" transform="translate(0.01 0.01)"/><path class="cls-1" d="M72.11,50.56a1.39,1.39,0,0,0,.74-.19,1.46,1.46,0,1,0-.74.19Z" transform="translate(0.01 0.01)"/><path class="cls-1" d="M75.28,56.06a.81.81,0,0,0-.24-.17.79.79,0,0,0-.25-.15,1,1,0,0,0-.28-.08,1.47,1.47,0,0,0-.59,0,.84.84,0,0,0-.27.08.74.74,0,0,0-.26.15,1.06,1.06,0,0,0-.23.17,1.92,1.92,0,0,0-.19.23,1.05,1.05,0,0,0-.13.26,1,1,0,0,0-.1.29v.28a1.52,1.52,0,0,0,.12.59c0,.08.08.17.13.25a1.37,1.37,0,0,0,.19.22,1.53,1.53,0,0,0,1.06.44,1.51,1.51,0,0,0,1-.44,1.54,1.54,0,0,0,.44-1.06A1.63,1.63,0,0,0,75.28,56.06Z" transform="translate(0.01 0.01)"/><path class="cls-1" d="M57.59,32.8A24.4,24.4,0,1,0,81.13,63.66,28.29,28.29,0,0,0,82,57.22,24.41,24.41,0,0,0,57.59,32.8Zm0,46.85a22.38,22.38,0,0,1-17-7.75H74.53A22.38,22.38,0,0,1,57.59,79.65ZM80,57.23A22.35,22.35,0,0,1,76.08,69.9h-37A22.41,22.41,0,1,1,80,57.22Z" transform="translate(0.01 0.01)"/><path class="cls-1" d="M58.39,42.12A1.49,1.49,0,1,0,57,40.55v0A1.49,1.49,0,0,0,58.39,42.12Z" transform="translate(0.01 0.01)"/><path class="cls-1" d="M65.61,44.35l0,0a1.5,1.5,0,0,0,2.06-.48l0-.06a1.5,1.5,0,1,0-2.13.51Z" transform="translate(0.01 0.01)"/><path class="cls-1" d="M51.63,41.64a1.48,1.48,0,0,0-2-.67h0A1.48,1.48,0,0,0,49,43a1.51,1.51,0,0,0,1.34.86,1.45,1.45,0,0,0,.67-.17h0a1.5,1.5,0,0,0,.68-2Z" transform="translate(0.01 0.01)"/><path class="cls-1" d="M41.2,57A1.42,1.42,0,1,0,41,57Z" transform="translate(0.01 0.01)"/><path class="cls-1" d="M44.85,46.52v0A1.5,1.5,0,0,0,43.14,49a1.47,1.47,0,0,0,2.08-.36l0,0A1.47,1.47,0,0,0,44.85,46.52Z" transform="translate(0.01 0.01)"/><path class="cls-1" d="M42.15,62.33a.74.74,0,0,0-.29.08l-.26.13a2.11,2.11,0,0,0-.23.19,1.5,1.5,0,0,0,.49,2.44,1.23,1.23,0,0,0,.59.12,1.53,1.53,0,0,0,1.06-.39,1.61,1.61,0,0,0,0-2.17A1.52,1.52,0,0,0,42.15,62.33Z" transform="translate(0.01 0.01)"/></svg>