<svg id="Layer_1" data-name="Layer 1" xmlns="http://www.w3.org/2000/svg" xmlns:xlink="http://www.w3.org/1999/xlink" viewBox="0 0 68.83 133.81"><defs><style>.cls-1,.cls-18{fill:none;}.cls-2{fill:#6d6d6d;}.cls-3{fill:#c5c7c9;}.cls-4{fill:#cfd0d2;}.cls-5{fill:#a4a4a4;}.cls-6{fill:#3e8ec6;}.cls-7{fill:#64d8d5;}.cls-8{fill:#57bcb9;}.cls-9{clip-path:url(#clip-path);}.cls-10{fill:#f2af97;}.cls-11{fill:#2d2566;}.cls-12{fill:#dfdfe5;}.cls-13{fill:#c1c1c1;}.cls-14{fill:#5a5872;}.cls-15{fill:#f95d55;}.cls-16{fill:#f9773f;}.cls-17{fill:#fff;}.cls-18{stroke:#e0e0e0;stroke-width:2px;}g#matha{transform-box:fill-box;transform-origin:bottom;animation:matha 2s ease 0s infinite}circle.cls-18{animation:circle 1s ease 0s infinite}@keyframes matha{0%,100%{transform:rotate(0)}33%{transform:rotate(-6deg)}66%{transform:rotate(6deg)}}@keyframes circle{0%,100%{opacity:1}50%{opacity:0}}</style><clipPath id="clip-path" transform="translate(0)"><rect class="cls-1" x="1.72" y="11.67" width="65.03" height="107.96"/></clipPath></defs><title>1_1</title><rect class="cls-2" x="0.05" width="68.78" height="133.81" rx="6.91" ry="6.91"/><circle class="cls-3" cx="34.52" cy="126.38" r="4.81"/><circle class="cls-2" cx="34.52" cy="126.38" r="3.86"/><path class="cls-4" d="M25.28,6.25H44.05a.63.63,0,0,1,.63.63h0a.64.64,0,0,1-.63.62H25.28a.64.64,0,0,1-.63-.62h0A.63.63,0,0,1,25.28,6.25Z" transform="translate(0)"/><path class="cls-5" d="M1.72,11.67h65v108h-65Z" transform="translate(0)"/><path class="cls-6" d="M1.72,11.67h65v108h-65Z" transform="translate(0)"/><path class="cls-7" d="M1.72,84v35.64h65V84Z" transform="translate(0)"/><path class="cls-8" d="M1.72,91.93v8.52l35.33-2.52v-6Z" transform="translate(0)"/><g class="cls-9"><path id="body" class="cls-11" d="M58.26,77.08a17,17,0,0,0,2.27-2.37,6.71,6.71,0,0,0,1.27-2.92,5.53,5.53,0,0,0-.68-3.56q-3.3-6.15-6.65-12.3a4.61,4.61,0,0,0-.7-1,4.07,4.07,0,0,0-4-1.11,3.7,3.7,0,0,0-1.92,1.06l-6.6,7.45a.56.56,0,0,1-.48.2l-4-.15-4.55-.2a3.18,3.18,0,0,0-1.85.46,2,2,0,0,0-1.06,1.64c-.07,1.11.78,1,1.85,1.37a8.2,8.2,0,0,0,1.37.47c1.22.08.13.44,1.35.52.87,0,3.21.53,4.07.53a21.45,21.45,0,0,0,3.2.25,4.83,4.83,0,0,0,3-1.12l2.6-2.3,1.3-1h0c.8,4.9,2.32,7.43,5,8.7.1.09.06.14,0,.22l-2.72,3.32a68.58,68.58,0,0,0-4.6,6,3.86,3.86,0,0,0-.67,2,8.94,8.94,0,0,0,.34,3l1.66,5.85a11.28,11.28,0,0,0,.42,1.4l.09.17c-.86.3-4.45,1.61-4.73,2s-.55,1.08-.33,1.3,7-.08,9.17-.17a.63.63,0,0,0,.59-.66l-.47-3.67a2,2,0,0,0-.07-.48l-1.12-4.13-.3-1a.34.34,0,0,1,.16.13l.75,1.1,4,5.72a2.52,2.52,0,0,0,.3.35l-2.7,2.34a1,1,0,0,0-.44,1c.14.57,6.4-.34,8.27-.63a.48.48,0,0,0,.41-.54v-.06l-1.2-4.78,0,0a2.81,2.81,0,0,0-.26-.52l-4.12-6.38-2-3,.13-.14Z" transform="translate(0)"/><g id="matha"><path class="cls-10" d="M47.85,45.6a13.08,13.08,0,0,1,1.2,3.19c.14,1.2-1.66,3.9-1.66,3.9l-4.66-1a5.75,5.75,0,0,1-1.68-3.1c-.46-2.08,2.2-3.3,2.2-3.3s3.38-1.5,4.64.3Z" transform="translate(0)"/><path class="cls-11" d="M41.27,49.8a10.89,10.89,0,0,1,7.17-3.28,21.23,21.23,0,0,0-.92-2,3,3,0,0,0-2.93-1.39,5.36,5.36,0,0,0-2.54.87,3.32,3.32,0,0,0-1.74,3.18A15.22,15.22,0,0,0,41.27,49.8Z" transform="translate(0)"/><path class="cls-11" d="M45.42,49.73l-2.08,1.4-.84.61a9.31,9.31,0,0,0,2,2.06,3,3,0,0,0,3.86-.13,3.09,3.09,0,0,0,1-2,9.21,9.21,0,0,0-.15-2.87h-.16l-3,.73A2,2,0,0,0,45.42,49.73Z" transform="translate(0)"/><path class="cls-11" d="M44.14,49a2.64,2.64,0,0,0,.12-.4l-.07-.05L42.37,49s-.08.1-.07.16a.5.5,0,0,0,.42.4A1.52,1.52,0,0,0,44.14,49Z" transform="translate(0)"/><path class="cls-11" d="M47.31,47.5a.53.53,0,0,0,0-.52c-.06-.12-.12-.15-.24-.07l-.63.44L45.5,48l.36.17A1.47,1.47,0,0,0,47.31,47.5Z" transform="translate(0)"/></g><path class="cls-12" d="M.05,63.64a110.1,110.1,0,0,1,21.72-11.1L15.85,52l-8-.27c-2.66,0-5.2.13-7.8.27h0Z" transform="translate(0)"/><path class="cls-13" d="M27.44,57.93a36,36,0,0,0-1.34-3.64,1.74,1.74,0,0,0-1.32-1.11l-3-.6A109.57,109.57,0,0,0,.05,63.66v2.07l5.32-.23,4.76.13c1,0,2.06.14,3.1.22l3.5.32,3.74.37,4,.46,3.83.46,1.48.17v-.3Z" transform="translate(0)"/><path class="cls-14" d="M25.05,94.7a11.44,11.44,0,0,0,.2,1.75,1.81,1.81,0,0,0,1.8,1.44l9,.11H37.4a1,1,0,0,0,1-.86,15.86,15.86,0,0,0,.26-1.94l.13-1.83c-3.48.76-13.52,1.1-13.83,1.1a.75.75,0,0,0,.1.27Z" transform="translate(0)"/><path class="cls-15" d="M25,94.38c.3,0,10.35-.35,13.83-1.1v-.7Z" transform="translate(0)"/><path class="cls-16" d="M39.46,78.74,39,73.14a12.38,12.38,0,0,0-1.31-4.48,3.63,3.63,0,0,0-2.62-2.08,2.75,2.75,0,0,1-1.61-1c-.13-.15-.3-.34-.08-.52,0,0,.33.14.4.26a1.49,1.49,0,0,0,1.1.83,9.75,9.75,0,0,0,1.87.13,1.7,1.7,0,0,0,1.32-.64,4.92,4.92,0,0,0,1.2-2.33,3.16,3.16,0,0,0-.2-2.57c-.23-.34-.4-.6-.8-.64a18.17,18.17,0,0,0-2.09-.1,8.75,8.75,0,0,0-2.86.6,1.48,1.48,0,0,0-1,1,2,2,0,0,1-.18.48L32,61.53l-.93-4.1a18.61,18.61,0,0,0-1.76-5.07,4,4,0,0,0-2.52-2,40.79,40.79,0,0,0-7.61-1.07L12.44,49c-4.15-.16-8.3-.13-12.44.06v3H.05l7.77-.2,8,.27,5.9.54c1,.12,2,.4,3,.6a1.74,1.74,0,0,1,1.33,1,33.83,33.83,0,0,1,1.35,3.64l2.3,9.4a1.5,1.5,0,0,1,0,.3l-1.41-.18L24.46,67l-4-.46-3.74-.37-3.5-.32-3.1-.22L5.36,65.5l-5.31.23V95h0l4.83.3a27.92,27.92,0,0,0,3.17.15l9-.58,7-.46H25l13.87-1.8.7-8.47h0A48.65,48.65,0,0,0,39.46,78.74Z" transform="translate(0)"/><path class="cls-17" d="M36.05,77.07a5.22,5.22,0,0,1,.7,3.76,8.39,8.39,0,0,1-1.1,2.68c0,.2-.06.26-.26.3l-8.7,1.7-2.72.4a.9.9,0,0,1-1-.72,2.87,2.87,0,0,1,.08-1.59,7.22,7.22,0,0,1,2.21-3.54,8.62,8.62,0,0,1,2.94-1.38,40.82,40.82,0,0,1,6.27-1.39Z" transform="translate(0)"/><circle class="cls-18" cx="32.44" cy="80.99" r="1.99"/></g></svg>