<svg id="Layer_1" data-name="Layer 1" xmlns="http://www.w3.org/2000/svg" viewBox="0 0 115.52 115.52"><defs><style>.cls-1{fill:#3e3e3e;}path#ghonta{transform-box:fill-box;transform-origin:top;animation:ghonta 1s cubic-bezier(.45,.05,.55,.95) 0s infinite}@keyframes ghonta{0%,100%{transform:rotate(0)}33%{transform:rotate(-9deg)}66%{transform:rotate(9deg)}}</style></defs><title>3</title><path id="gol" class="cls-1" d="M57.78,0a57.76,57.76,0,1,0,57.76,57.77h0A57.76,57.76,0,0,0,57.78,0Zm0,113.54a55.76,55.76,0,1,1,55.76-55.76A55.75,55.75,0,0,1,57.78,113.52Z" transform="translate(-0.02 0.02)"/><path id="ghonta" class="cls-1" d="M81.62,69.3l-.6-.45A9,9,0,0,1,78.08,65a26,26,0,0,1-1.69-6.34,73.92,73.92,0,0,0-1.87-10.46,16,16,0,0,0-9.65-11.54c-.68-.28-1.38-.5-2.08-.75a1.11,1.11,0,0,0,.1-.31,4.91,4.91,0,0,0,.34-1.13A5.58,5.58,0,0,0,58.76,28l-.2-.09H56.93l-.37.12a5.65,5.65,0,0,0-3.87,7.89c0,.09-.1.09-.1.09l-.6.21A15.7,15.7,0,0,0,42.15,45a39.31,39.31,0,0,0-2.39,9.2c-.4,2.12-.6,4.28-1,6.38-.7,3.79-2.1,7.19-5.6,9.31A.8.8,0,0,0,33,70a10.66,10.66,0,0,0-1.52,2,9,9,0,0,0-.61,5.47s0,.11,0,.17a2.88,2.88,0,0,0,3.22,2.47H50.33v.5a7.5,7.5,0,0,0,5.39,6.67l1.1.3h1.83a1.72,1.72,0,0,1,.26-.1,7.35,7.35,0,0,0,6-5.44,15.57,15.57,0,0,0,.33-1.91H81.55a2.77,2.77,0,0,0,3-2.36A7.94,7.94,0,0,0,81.62,69.3ZM57.81,31.1a2.44,2.44,0,0,1,2.4,2.43v0a2.44,2.44,0,1,1-2.4-2.47Zm0,52.74a3.68,3.68,0,0,1-3.68-3.68h7.36A3.68,3.68,0,0,1,57.77,83.84Zm24.52-6.38H33.2c.12-.91.19-2.31.34-3.13a3.17,3.17,0,0,1,.67-1.08,4.67,4.67,0,0,1,.85-.69,14.75,14.75,0,0,0,5.66-8.12,52.19,52.19,0,0,0,1.73-9,40.53,40.53,0,0,1,2.09-9.17c1.89-5,5.66-7.64,10.83-8.4a15.78,15.78,0,0,1,8,.76c4.52,1.68,7.09,5,8.26,9.6a75,75,0,0,1,1.85,10.31,30,30,0,0,0,2.34,8.52,12.37,12.37,0,0,0,4.57,5.4C82.06,73.56,82.37,75.64,82.29,77.46Z" transform="translate(-0.02 0.02)"/></svg>