<svg id="Layer_1" data-name="Layer 1" xmlns="http://www.w3.org/2000/svg" viewBox="0 0 115.52 115.52"><defs><style>.cls-1{fill:#3e3e3e;}.cls-2{fill:none;}.animatt{transform:translateX(2px) rotate(13deg);transform-box:fill-box;transform-origin:left;animation:animatt 2s cubic-bezier(.82,.74,.58,1) 0s infinite}@keyframes animatt{0%,100%{transform:translateX(2px) rotate(13deg)}50%{transform:translateX(0) rotate(0)}}</style></defs><title>4</title><rect class="cls-1" x="46.1" y="37.8" width="15.5" height="2.5"/><path class="cls-1" d="M57.76,0a57.77,57.77,0,1,0,57.76,57.77A57.78,57.78,0,0,0,57.76,0Zm0,113.53a55.77,55.77,0,1,1,55.76-55.76A55.77,55.77,0,0,1,57.76,113.52Z" transform="translate(0.01 0.01)"/><path class="cls-1" d="M41.7,52.66H66V33.22H41.7Zm1.79-17.44H64.2v15.5H43.49Z" transform="translate(0.01 0.01)"/><path class="cls-2" d="M79.85,44v4.37a2.07,2.07,0,0,0,.55,1.08l1.8,1.85h0l.16-.06V47.47a.48.48,0,0,0-.06-.28Z" transform="translate(0.01 0.01)"/><path class="cls-2" d="M64.59,24.79a5.48,5.48,0,0,0-.7,0H43.82a5.23,5.23,0,0,0-5.54,4.89,3.21,3.21,0,0,0,0,.62V87.06H69.43V30.35A5.21,5.21,0,0,0,64.59,24.79Z" transform="translate(0.01 0.01)"/><path class="cls-1" d="M72.07,63.74h0V61.12h0V30.29c0-.15,0-.29,0-.43a7.74,7.74,0,0,0-7.85-7.63H43.54a7.57,7.57,0,0,0-5.28,2,7.9,7.9,0,0,0-2.56,6.18v56.7H30.52v2.5H77.16V87.08H72.07ZM69.43,87.06H38.28V30.29a3.21,3.21,0,0,1,0-.62,5.23,5.23,0,0,1,5.54-4.89H63.89a5.48,5.48,0,0,1,.7,0,5.21,5.21,0,0,1,4.84,5.56Z" transform="translate(0.01 0.01)"/><path class="cls-1 animatt" d="M84.13,41.58,75.66,30.66l-.44-.5-2,1.56L76.48,36a1.87,1.87,0,0,1,.36,1v6.48a5.16,5.16,0,0,0,1.6,3.88l3.2,3.24a1.25,1.25,0,0,1,.35.82v21a3.22,3.22,0,0,1-.59,1.68,2.45,2.45,0,0,1-2.83.81,2.57,2.57,0,0,1-1.72-2.49V62.18a5.19,5.19,0,0,0-3.91-5.08l-3.51-.85v5.39a2.4,2.4,0,0,1,4.77.51V72.3a5.2,5.2,0,1,0,10.4,0V43A2.47,2.47,0,0,0,84.13,41.58ZM82,47l-.17.06h0L80,45.24a2.13,2.13,0,0,1-.54-1.08V39.79l2.45,3.15a.48.48,0,0,1,.06.28Z" transform="translate(0.01 0.01)"/></svg>