<svg id="Layer_1" data-name="Layer 1" xmlns="http://www.w3.org/2000/svg" viewBox="0 0 115.52 115.52"><defs><style>.cls-1{fill:#3e3e3e;}#cool{transform-box:fill-box;transform-origin:center;animation:cool 5s linear 0s infinite}@keyframes cool{0%{transform:rotate(0)}100%{transform:rotate(360deg)}}</style></defs><title>5</title><path id="cool" class="cls-1" d="M86.46,52.09l-3.13-1.77-4.62-2.68,7.71-4.44c1.59-.94,1.78-2.77.32-3.4a3.32,3.32,0,0,0-2.41.26l-7.6,4.25v-8c0-1.39-.45-2.48-1.93-2.48s-1.94,1.1-1.91,2.48V45a2.29,2.29,0,0,1-1.41,2.35L61.29,53.11c-.45.26-1,.45-1.59.76V40.17a2.42,2.42,0,0,1,1.09-1.67l8-4.62c1.23-.7,2.43-1.48,1.44-3.08-.87-1.42-2.09-1-3.3-.27l-7.2,4.15V26.31c0-1.44,0-2.76-2-2.75a1.24,1.24,0,0,0-.63.08,3,3,0,0,0-1.2,2.05v8.87l-7.18-4.07c-1.25-.74-2.5-1.25-3.41.32s.28,2.28,1.43,2.94l8,4.61c.48.27,1.1.84,1.1,1.29l.06,14.13L54.33,53l-10-5.67a2.15,2.15,0,0,1-1.25-2.23V36.26A3,3,0,0,0,42,34.12c-1.27-.82-2.64.25-2.66,2v8.32l-7-4c-2.27-1.3-3.5-1.33-4.06,0-.85,2,.89,2.58,2.16,3.3l6.93,4-7.7,4.4c-1.21.68-2.18,1.54-1.32,3s2.11,1,3.31.3l8.41-4.85a2.21,2.21,0,0,1,1.68-.26L54,57.25,41.42,64.33a2.07,2.07,0,0,1-1.66-.27l-8.71-4.93c-1.26-.74-2.46-.94-3.21.52s.22,2.21,1.36,2.84l3.11,1.76L37,66.93l-7.73,4.44c-1.56.94-1.76,2.78-.31,3.4a3.18,3.18,0,0,0,2.4-.26l7.6-4.25v8c0,1.41.44,2.49,1.94,2.49s1.93-1.11,1.89-2.49v-8.7a2.27,2.27,0,0,1,1.41-2.33c3.41-1.87,6.8-3.85,10.18-5.77.46-.26,1-.45,1.59-.76l-.05,13.7a2.39,2.39,0,0,1-1.08,1.67c-2.63,1.61-5.33,3.11-8,4.62-1.23.7-2.43,1.49-1.44,3.08.87,1.42,2.1,1,3.3.28L56,79.89v8.37C56,89.7,55.86,91,57.86,91a1.31,1.31,0,0,0,.68-.07,3.06,3.06,0,0,0,1.24-2c.13-2.85.06-5.7.06-8.88L67,84.14c1.25.74,2.5,1.24,3.39-.33s-.26-2.28-1.42-2.94l-8-4.6c-.47-.27-1.1-.84-1.1-1.29-.08-4.62,0-9.25,0-14.14.69.34,1.15.5,1.57.75l10,5.68a2.17,2.17,0,0,1,1.25,2.22c-.06,3-.11,5.93,0,8.88a2.93,2.93,0,0,0,1.1,2.14c1.27.82,2.63-.24,2.65-2V70.19l7.06,4c2.26,1.31,3.5,1.33,4,0,.86-2-.89-2.57-2.15-3.3l-6.94-4,7.7-4.4c1.19-.68,2.18-1.54,1.3-3s-2.1-1-3.3-.3L75.65,64a2.15,2.15,0,0,1-1.69.26L61.78,57.36l12.5-7.09a2.24,2.24,0,0,1,1.62.24h0l8.7,4.94c1.25.73,2.45.93,3.2-.52S87.59,52.73,86.46,52.09Z" transform="translate(0.01 0)"/><path class="cls-1" d="M57.76,0a57.76,57.76,0,1,0,57.76,57.76h0A57.76,57.76,0,0,0,57.76,0Zm0,113.53a55.76,55.76,0,1,1,55.76-55.76A55.76,55.76,0,0,1,57.76,113.53Z" transform="translate(0.01 0)"/></svg>