<svg id="Layer_1" data-name="Layer 1" xmlns="http://www.w3.org/2000/svg" viewBox="0 0 115.52 115.52"><defs><style>.cls-1{fill:#3e3e3e;}g#engin{animation:engin .3s ease 0s infinite}@keyframes engin{0%,30%{transform:translate(0,0)}20%{transform:translate(1px,1px)}60%{transform:translate(2px,1px)}100%{transform:translate(1px,2px)}}</style></defs><title>7</title><path class="cls-1" d="M57.76,0a57.76,57.76,0,1,0,57.75,57.76h0A57.76,57.76,0,0,0,57.76,0Zm0,113.53a55.76,55.76,0,1,1,55.76-55.76A55.75,55.75,0,0,1,57.75,113.53Z" transform="translate(0 0)"/><g id="engin"><path class="cls-1" d="M87.58,51.69l-1.06-.75-2.39-1.67c-.2-.12-.21-.15-.13-.39l.07-.25A11.11,11.11,0,0,0,84.48,47a3.57,3.57,0,0,0-.93-2.87l1.09-1.56L86,43.5l.21-.26a2.4,2.4,0,0,0-.41-3.72L83,37.58a.35.35,0,0,1-.19-.37A1.84,1.84,0,0,0,82,35.36l-2.15-1.5L78.53,33a1.87,1.87,0,0,0-2-.14c-.14.13-.16.13-.34,0l-2.82-2a2.43,2.43,0,0,0-3.63.89l-.18.3,1.32,1-1,1.5-2.77-.64-.11,1-.09-.79H64l-.06.79-.1-.78h-3v.76l-.08-.77H57.87l-.06.66v-.66H54.9l-.06.79-.09-.77H51.88l-.07.74-.07-.75H48.83v.76l-.09-1-2.91.71-1-1.53,1.36-1-.2-.29A2.43,2.43,0,0,0,42.28,31l-.63.45-2.09,1.44a.36.36,0,0,1-.32,0,2.05,2.05,0,0,0-2.07.21L33.8,35.39a2,2,0,0,0-.93,1.86.67.67,0,0,1-.17.36L31,38.81l-1.12.8a2.42,2.42,0,0,0-1.08,1.7,2.53,2.53,0,0,0,.69,2l.22.26,1.38-.88,1.09,1.56a3.63,3.63,0,0,0-.92,3,10.71,10.71,0,0,0,.49,1.87c.07.17.07.18-.09.3l-3.54,2.46a7.22,7.22,0,0,0-2.77,7.8q2.13,7.54,4.3,15.07a6.91,6.91,0,0,0,6.72,5.07h4.17l.2.71.55,2.07a3.08,3.08,0,0,0,2.45,2.37,25.13,25.13,0,0,0,3.25.26h1.75l.08-.94.09.76h2.88l.07-.77L52,85h2.8l.09-.78L55,85h3v-.66L58,85h2.91v-.75L61,85h2.94l.06-.76V85h2.9l.1-.8L67,85h3.65a3.63,3.63,0,0,0,3.91-3l.54-1.79.15-.55h4.3A7,7,0,0,0,86,74.83q2.22-7.67,4.37-15.37A7.23,7.23,0,0,0,87.58,51.69ZM72.07,33.83l11.38,8-1,1.5L71,35.33Zm-28.31,0,1,1.5-11.42,8-1-1.5ZM36,78.31a5.44,5.44,0,0,1-4.93-3.92q-2.16-7.55-4.3-15.13A5.75,5.75,0,0,1,29,53l2.45-1.72.81-.55,0,.32L33,53.33a.89.89,0,0,1-.08.17L31.3,54.59l-.71.48a3.2,3.2,0,0,0-1.27,3.55q2.12,7.52,4.25,15a2.85,2.85,0,0,0,2.79,2.08h3L40,78l.11.33Zm-1.41-20,.74-.14v.06l-.7.29.77,2.78.76-.14v0l-.7.3.77,2.77.75-.15v.07l-.69.3.78,2.81.76-.17v.06l-.7.3.78,2.81.76-.19v.06l-.72.31.77,2.76.81-.14v.06l-.7.29.14.63h-.61a16.29,16.29,0,0,1-2.42,0c-.47-.06-.8-.44-1-1.16l-2.59-9.1-1.07-3.75-.5-1.84a1.66,1.66,0,0,1,.69-2l1.63-1.15.37-.26.32.44.69-.09v.07l-.69.27Zm5.29,16.6.09.34a1.14,1.14,0,0,0-.69-.34Zm35.46-.53-.17.6-.58,2.07-1.39,4.87A2.1,2.1,0,0,1,71,83.61H68.42l-.08-.75H65.58l-.07.72h-.12l-.06-.72H62.56l-.06.71h-.11l-.06-.74H59.56l-.07.73h-.12l-.09-.74H56.51l-.06.75h-.09l-.06-.75H53.5l-.06.75h-.12l-.06-.74H50.51l-.07.75h-.13l-.07-.75H47.49l-.09.78h-.71a18.58,18.58,0,0,1-2.36,0,1.87,1.87,0,0,1-1.62-1.42l-1.65-5.8-.55-1.94.52-.27-.77-2.69-.8.14v-.15l.74-.3-.76-2.7-.77.16v-.15l.72-.3-.8-2.7-.75.19v-.17l.71-.3-.75-2.7-.77.16v-.16l.71-.27L37,59.55l-.75.14v-.17l.7-.25-.79-2.7-.72.14v-.16l.68-.3-.74-2.66-.75.12-.5-1.7-1.37-4.93a2,2,0,0,1,1-2.27l4-2.82q4.14-2.94,8.34-5.84a8,8,0,0,1,1.13-.57l.2-.08.1.73h2.73l.08-.73h.13l.07.73h2.75l.06-.74h.11l.06.75h2.79l.06-.74h.12l.07.73h2.85V35.5h.12l.06.75h2.8l.06-.76h.09l.06.75h2.76l.07-.74h.15l.07.74h2.72l.11-.73.19.08a6.42,6.42,0,0,1,1.17.59l9.5,6.63,2.77,2a2.2,2.2,0,0,1,1,2.58L81.3,53.71l-.74-.15-.78,2.68.56.29v.18l-.72-.14-.78,2.66.69.29v.17l-.75-.13-.86,2.61.7.33v.14l-.74-.13-.11.32-.14.47a9.48,9.48,0,0,0-.36,1.29,1,1,0,0,0,.35.77c0,.06.15.12.15.17v.08L77,65.46l-.81,2.71.75.26v.14l-.77-.14-.79,2.69.75.28v.16l-.78-.14-.8,2.7Zm1-1.12v-.06l.81.15.8-2.78-.74-.3v0l.76.17.79-2.79L78,67.3v-.06l.75.15.8-2.8-.69-.27v-.07l.74.15.8-2.79-.7-.25V61.3l.79.09.78-2.75-.68-.3v-.06l.74.12.79-2.76-.69-.27V55.3l.69.09.21-.55.5.35a21.7,21.7,0,0,1,1.9,1.4,1.44,1.44,0,0,1,.33,1.55Q83,65.61,80.84,73.08a1.31,1.31,0,0,1-1.48,1.11H76.89l.13-.64Zm.14,1.63a1.15,1.15,0,0,0-.57.34l.17-.66,0,.1ZM89,59.24Q87.66,64.13,86.26,69l-1.5,5.24a5.43,5.43,0,0,1-4.94,4.07H75.76l0-.32.65-2.24a.56.56,0,0,1,.19-.09h2.69a2.85,2.85,0,0,0,2.88-2.15q2.15-7.45,4.24-14.9a3.18,3.18,0,0,0-1.34-3.58l-2.35-1.63.76-2.74,1.42,1a24.24,24.24,0,0,1,2.56,1.94A5.36,5.36,0,0,1,89,59.24Z" transform="translate(0 0)"/><path class="cls-1" d="M56.89,66.44a3.71,3.71,0,0,0-3.74,3.67v.08a3.67,3.67,0,0,0,3.69,3.64,3.7,3.7,0,1,0,0-7.39Zm0,5.92a2.23,2.23,0,0,1-1.6-.66,2.37,2.37,0,0,1-.67-1.65,2.27,2.27,0,0,1,2.25-2.22h0a2.27,2.27,0,0,1,0,4.53Z" transform="translate(0 0)"/><path class="cls-1" d="M68.93,53.94a2.75,2.75,0,0,0-2.72,2.67A2.64,2.64,0,0,0,67,58.5a2.72,2.72,0,0,0,1.94.81H69a2.71,2.71,0,0,0,1.87-4.59A2.79,2.79,0,0,0,68.93,53.94Zm.88,3.59a1.2,1.2,0,0,1-.88.36,1.28,1.28,0,0,1-1.24-1.32,1.23,1.23,0,0,1,.42-.89,1.18,1.18,0,0,1,.83-.37l0,0a1.3,1.3,0,0,1,1.23,1.3A1.22,1.22,0,0,1,69.81,57.53Z" transform="translate(0 0)"/><path class="cls-1" d="M75.45,53.55a7.36,7.36,0,0,0-4-3.68,1.25,1.25,0,0,0-.74-1.36L65.82,45a5.49,5.49,0,0,0-4.31-1.3c-.31.06-.4,0-.57-.44A7.21,7.21,0,0,0,47.62,43a2.74,2.74,0,0,1-1.11,1.33L42.61,47l-2,1.39c-1,.7-1.13.83-.85,1.7a1.36,1.36,0,0,1,.13.43l2.94,10.33q1.92,6.81,3.85,13.58a.59.59,0,0,0,0,.13,1.16,1.16,0,0,0,1.39.87c.33-.06.49,0,.86.5a9.59,9.59,0,0,0,7.93,4H57A9.78,9.78,0,0,0,66.69,70a1.37,1.37,0,0,1,.2-.67l3.73-5.27a2,2,0,0,1,.83-.64l.49-.2A7.29,7.29,0,0,0,75.45,53.55ZM47.57,65.65a7.75,7.75,0,0,1-.25,1.59,4.13,4.13,0,0,0-.17.82A11.48,11.48,0,0,0,47,70.17L41.15,49.74l0,0,.5-.34,5.26-3.71a.88.88,0,0,1,0,.23,12.08,12.08,0,0,0,.32,2,9.21,9.21,0,0,1,.31,2.33ZM61.38,45.07l0,0a4.21,4.21,0,0,1,3.12.71l3.61,2.58,1.5,1-2.23.09a1,1,0,0,1-.41,0l-5.41-3.95a1,1,0,0,1-.18-.43h0ZM48.31,46a5.83,5.83,0,0,1,5.76-5.89h.13a6,6,0,0,1,4.06,1.68A5.78,5.78,0,0,1,60,45.93,5.66,5.66,0,0,1,58.32,50a5.84,5.84,0,0,1-10-4Zm8.63,32.59a8.5,8.5,0,1,1-.06-17h0a8.5,8.5,0,0,1,.06,17Zm8.62-13.21a9.66,9.66,0,0,0-8-5.2h-.8A9.59,9.59,0,0,0,49,64V51a7.22,7.22,0,0,0,3.77,2,7.34,7.34,0,0,0,8.61-5.78l4.12,3a7.28,7.28,0,0,0,.65,13.14Zm1,2.19v0l.8-2.87.23-.77,1.51.09Zm2.37-5a5.83,5.83,0,1,1,5.82-5.83A5.82,5.82,0,0,1,68.9,62.49Z" transform="translate(0 0)"/><path class="cls-1" d="M54.2,48.36h.07A2.65,2.65,0,0,0,56.9,45.7a2.7,2.7,0,0,0-.77-1.93A2.77,2.77,0,0,0,54.2,43a2.71,2.71,0,0,0-2.71,2.65,2.63,2.63,0,0,0,.77,1.9A2.67,2.67,0,0,0,54.2,48.36Zm-.82-3.63a1.16,1.16,0,0,1,.82-.37h0a1.34,1.34,0,0,1,1.24,1.32,1.31,1.31,0,0,1-1.29,1.25,1.26,1.26,0,0,1-.82-2.21Z" transform="translate(0 0)"/></g></svg>