<svg id="Layer_1" data-name="Layer 1" xmlns="http://www.w3.org/2000/svg" viewBox="0 0 115.52 115.52"><defs><style>.cls-1{fill:#3e3e3e;}g#animation path,g#animation rect{transform-origin:left;transform-box:fill-box;transform:scale(0);animation:animation 5s ease 0s infinite}@keyframes animation{0%{transform:scale(0)}30%,90%{transform:scale(1)}}</style></defs><title>8</title><path class="cls-1" d="M65.91,51.05a4.61,4.61,0,0,0-3.3,4.41v.15H67Z" transform="translate(0.01 0.01)"/><path class="cls-1" d="M68.65,61.51h.16a5.35,5.35,0,0,0,0-10.7h0a6,6,0,0,0-1.56.36l1.31,5.44h-5A5,5,0,0,0,68.65,61.51Z" transform="translate(0.01 0.01)"/><path class="cls-1" d="M57.76,0a57.77,57.77,0,1,0,57.76,57.77A57.78,57.78,0,0,0,57.76,0Zm0,113.53a55.77,55.77,0,1,1,55.76-55.76A55.77,55.77,0,0,1,57.76,113.52Z" transform="translate(0.01 0.01)"/><path class="cls-1" d="M76.35,28.62H40a4.39,4.39,0,0,0-4.37,4.43V82.47a4.4,4.4,0,0,0,4.4,4.4H76.35v0a4.43,4.43,0,0,0,4.42-4.42V33A4.42,4.42,0,0,0,76.35,28.62Zm2.42,53.85a2.4,2.4,0,0,1-2.42,2.4H40a2.39,2.39,0,0,1-2.4-2.4V33A2.4,2.4,0,0,1,40,30.61H76.39a2.4,2.4,0,0,1,2.38,2.43Z" transform="translate(0.01 0.01)"/><g id="animation"><path class="cls-1" d="M74.48,66.06H41.86a1.14,1.14,0,0,0,0,2.28H74.48a1.14,1.14,0,0,0,0-2.28Z" transform="translate(0.01 0.01)"/><path class="cls-1" d="M41.86,62.54H54.73a1.13,1.13,0,1,0,0-2.26H41.86a1.13,1.13,0,1,0,0,2.26Z" transform="translate(0.01 0.01)"/><path class="cls-1" d="M41.86,56.76H54.73a1.14,1.14,0,0,0,0-2.28H41.86a1.14,1.14,0,0,0,0,2.28Z" transform="translate(0.01 0.01)"/><path class="cls-1" d="M74.48,71.39H41.86a1.13,1.13,0,1,0,0,2.26H74.48a1.13,1.13,0,0,0,0-2.26Z" transform="translate(0.01 0.01)"/><path class="cls-1" d="M74.48,76.71H41.86a1.13,1.13,0,0,0,0,2.26H74.48a1.13,1.13,0,0,0,0-2.26Z" transform="translate(0.01 0.01)"/><rect class="cls-1" x="40.73" y="39.06" width="2.24" height="3.72"/><path class="cls-1" d="M41.47,45.87H59.41a.73.73,0,1,0,0-1.46H41.47a.73.73,0,1,0,0,1.46Z" transform="translate(0.01 0.01)"/><rect class="cls-1" x="44.75" y="37.8" width="2.24" height="5"/><rect class="cls-1" x="56.63" y="40.58" width="2.24" height="2.22"/><rect class="cls-1" x="52.79" y="39.08" width="2.24" height="3.72"/><rect class="cls-1" x="48.77" y="34.98" width="2.24" height="7.82"/><path class="cls-1" d="M64.24,45.87h7.68a.73.73,0,1,0,0-1.46H64.24a.73.73,0,0,0,0,1.46Z" transform="translate(0.01 0.01)"/><path class="cls-1" d="M64.24,42.35h7.68a.73.73,0,1,0,0-1.46H64.24a.73.73,0,0,0,0,1.46Z" transform="translate(0.01 0.01)"/><path class="cls-1" d="M64.24,38.87h7.68a.73.73,0,1,0,0-1.46H64.24a.73.73,0,0,0,0,1.46Z" transform="translate(0.01 0.01)"/></g></svg>